# xmcd
#
# Track frame offsets:
#	150
#	22018
#	51327
#	84301
#	101232
#	117496
#	151903
#
# Disc length: 2357 seconds
#
# Revision: 0
# Processed by: cddbd v1.5.2PL0 Copyright (c) Steve Scherf et al.
# Submitted via: dBpowerAMP V4.0
#
DISCID=56093307
DTITLE=Luther Vandross - The Ultimate Luther Vandross CD2
DYEAR=2006
DGENRE=R&B
TTITLE0=Shine (The Freemasons Mix)
TTITLE1=Power of Love - Love Power (The Dance Radio Mix)
TTITLE2=Can Heaven Wait (David Harness Soulful Club Mix)
TTITLE3=Take You Out Tonight (Allstar Remix)
TTITLE4=I'd Rather (Mike Rizzo Global Mix)
TTITLE5='Til My Baby Comes Home (Dance Version)
TTITLE6=Stop To Love (12" Mix)
EXTD=Special Collection Edition
EXTT0=
EXTT1=
EXTT2=
EXTT3=
EXTT4=
EXTT5=
EXTT6=
PLAYORDER=
